<svg xmlns="http://www.w3.org/2000/svg" viewBox="0 0 1280 760" fill="none">
  <rect width="1280" height="760" rx="52" fill="#061222"/>
  <rect x="64" y="88" width="1152" height="584" rx="32" fill="#0F1F33"/>
  <rect x="128" y="152" width="1024" height="112" rx="24" fill="#142A45"/>
  <rect x="128" y="296" width="1024" height="288" rx="28" fill="#142A45"/>
  <rect x="160" y="188" width="120" height="28" rx="14" fill="#38BDF8" fill-opacity="0.55"/>
  <rect x="304" y="188" width="160" height="28" rx="14" fill="#34D399" fill-opacity="0.45"/>
  <rect x="496" y="188" width="140" height="28" rx="14" fill="#FACC15" fill-opacity="0.45"/>
  <rect x="664" y="188" width="200" height="28" rx="14" fill="#F472B6" fill-opacity="0.45"/>
  <rect x="888" y="188" width="228" height="28" rx="14" fill="#818CF8" fill-opacity="0.45"/>
  <rect x="160" y="332" width="960" height="32" rx="16" fill="#1E3A5F"/>
  <rect x="160" y="396" width="960" height="32" rx="16" fill="#1E3A5F"/>
  <rect x="160" y="460" width="960" height="32" rx="16" fill="#1E3A5F"/>
  <rect x="160" y="524" width="960" height="32" rx="16" fill="#1E3A5F"/>
  <rect x="208" y="332" width="148" height="32" rx="16" fill="#34D399" fill-opacity="0.55"/>
  <rect x="208" y="396" width="184" height="32" rx="16" fill="#38BDF8" fill-opacity="0.55"/>
  <rect x="208" y="460" width="168" height="32" rx="16" fill="#F97316" fill-opacity="0.55"/>
  <rect x="208" y="524" width="196" height="32" rx="16" fill="#F472B6" fill-opacity="0.55"/>
  <rect x="400" y="332" width="288" height="32" rx="16" fill="#223B5E"/>
  <rect x="400" y="396" width="240" height="32" rx="16" fill="#223B5E"/>
  <rect x="400" y="460" width="264" height="32" rx="16" fill="#223B5E"/>
  <rect x="400" y="524" width="312" height="32" rx="16" fill="#223B5E"/>
  <rect x="728" y="332" width="120" height="32" rx="16" fill="#34D399" fill-opacity="0.45"/>
  <rect x="728" y="396" width="160" height="32" rx="16" fill="#38BDF8" fill-opacity="0.45"/>
  <rect x="728" y="460" width="136" height="32" rx="16" fill="#FACC15" fill-opacity="0.45"/>
  <rect x="728" y="524" width="192" height="32" rx="16" fill="#F97316" fill-opacity="0.45"/>
  <rect x="920" y="332" width="168" height="32" rx="16" fill="#1E90FF" fill-opacity="0.32"/>
  <rect x="920" y="396" width="128" height="32" rx="16" fill="#A855F7" fill-opacity="0.32"/>
  <rect x="920" y="460" width="148" height="32" rx="16" fill="#F472B6" fill-opacity="0.32"/>
  <rect x="920" y="524" width="200" height="32" rx="16" fill="#34D399" fill-opacity="0.32"/>
  <rect x="128" y="96" width="280" height="32" rx="16" fill="#1E90FF" fill-opacity="0.25"/>
  <rect x="436" y="96" width="200" height="32" rx="16" fill="#22D3EE" fill-opacity="0.25"/>
  <rect x="668" y="96" width="160" height="32" rx="16" fill="#FACC15" fill-opacity="0.25"/>
  <rect x="868" y="96" width="284" height="32" rx="16" fill="#34D399" fill-opacity="0.25"/>
</svg>
