<svg xmlns="http://www.w3.org/2000/svg" viewBox="0 0 1280 760" fill="none">
  <rect width="1280" height="760" rx="48" fill="#0F172A"/>
  <rect x="32" y="32" width="1216" height="696" rx="36" fill="#1E293B"/>
  <rect x="88" y="96" width="800" height="520" rx="28" fill="#0B253F"/>
  <rect x="920" y="96" width="200" height="160" rx="24" fill="#0B253F"/>
  <rect x="920" y="288" width="200" height="160" rx="24" fill="#0B253F"/>
  <rect x="920" y="480" width="200" height="136" rx="24" fill="#0B253F"/>
  <rect x="120" y="136" width="360" height="180" rx="18" fill="#122E4F"/>
  <rect x="520" y="136" width="320" height="120" rx="18" fill="#122E4F"/>
  <rect x="520" y="280" width="320" height="112" rx="18" fill="#122E4F"/>
  <rect x="520" y="416" width="320" height="160" rx="18" fill="#122E4F"/>
  <rect x="120" y="348" width="360" height="228" rx="18" fill="#122E4F"/>
  <rect x="120" y="604" width="720" height="80" rx="18" fill="#122E4F"/>
  <rect x="952" y="128" width="80" height="32" rx="12" fill="#1E90FF" fill-opacity="0.35"/>
  <rect x="952" y="320" width="80" height="32" rx="12" fill="#34D399" fill-opacity="0.35"/>
  <rect x="952" y="512" width="80" height="32" rx="12" fill="#F59E0B" fill-opacity="0.35"/>
  <rect x="160" y="176" width="80" height="16" rx="8" fill="#1E90FF" fill-opacity="0.45"/>
  <rect x="260" y="176" width="140" height="16" rx="8" fill="#38BDF8" fill-opacity="0.45"/>
  <rect x="552" y="176" width="220" height="12" rx="6" fill="#E2E8F0" fill-opacity="0.6"/>
  <rect x="552" y="204" width="220" height="12" rx="6" fill="#E2E8F0" fill-opacity="0.35"/>
  <rect x="552" y="232" width="160" height="12" rx="6" fill="#E2E8F0" fill-opacity="0.35"/>
  <rect x="552" y="308" width="160" height="12" rx="6" fill="#E2E8F0" fill-opacity="0.6"/>
  <rect x="552" y="336" width="120" height="12" rx="6" fill="#E2E8F0" fill-opacity="0.3"/>
  <rect x="552" y="452" width="240" height="12" rx="6" fill="#E2E8F0" fill-opacity="0.6"/>
  <rect x="552" y="480" width="200" height="12" rx="6" fill="#E2E8F0" fill-opacity="0.4"/>
  <rect x="552" y="508" width="180" height="12" rx="6" fill="#E2E8F0" fill-opacity="0.2"/>
  <rect x="160" y="388" width="140" height="16" rx="8" fill="#34D399" fill-opacity="0.45"/>
  <rect x="160" y="418" width="280" height="12" rx="6" fill="#E2E8F0" fill-opacity="0.4"/>
  <rect x="160" y="446" width="220" height="12" rx="6" fill="#E2E8F0" fill-opacity="0.3"/>
  <rect x="160" y="474" width="260" height="12" rx="6" fill="#E2E8F0" fill-opacity="0.15"/>
  <rect x="160" y="636" width="200" height="16" rx="8" fill="#38BDF8" fill-opacity="0.45"/>
  <rect x="380" y="636" width="260" height="16" rx="8" fill="#E2E8F0" fill-opacity="0.25"/>
  <rect x="656" y="636" width="120" height="16" rx="8" fill="#F472B6" fill-opacity="0.35"/>
  <rect x="160" y="216" width="220" height="96" rx="14" fill="#0F172A" fill-opacity="0.6"/>
  <rect x="180" y="236" width="180" height="12" rx="6" fill="#E2E8F0" fill-opacity="0.55"/>
  <rect x="180" y="260" width="140" height="12" rx="6" fill="#E2E8F0" fill-opacity="0.3"/>
  <rect x="180" y="284" width="120" height="12" rx="6" fill="#E2E8F0" fill-opacity="0.16"/>
  <rect x="968" y="584" width="104" height="12" rx="6" fill="#E2E8F0" fill-opacity="0.35"/>
  <rect x="968" y="612" width="88" height="12" rx="6" fill="#E2E8F0" fill-opacity="0.2"/>
  <rect x="968" y="648" width="72" height="12" rx="6" fill="#34D399" fill-opacity="0.45"/>
  <rect x="968" y="192" width="120" height="12" rx="6" fill="#E2E8F0" fill-opacity="0.4"/>
  <rect x="968" y="220" width="84" height="12" rx="6" fill="#34D399" fill-opacity="0.45"/>
  <rect x="968" y="384" width="120" height="12" rx="6" fill="#E2E8F0" fill-opacity="0.35"/>
  <rect x="968" y="412" width="92" height="12" rx="6" fill="#FACC15" fill-opacity="0.45"/>
  <rect x="120" y="96" width="600" height="24" rx="12" fill="#E2E8F0" fill-opacity="0.14"/>
  <rect x="744" y="96" width="140" height="24" rx="12" fill="#22D3EE" fill-opacity="0.2"/>
  <rect x="920" y="96" width="200" height="24" rx="12" fill="#E2E8F0" fill-opacity="0.08"/>
</svg>
