<svg xmlns="http://www.w3.org/2000/svg" viewBox="0 0 1400 800" fill="none">
  <defs>
    <linearGradient id="panel" x1="0" y1="0" x2="1" y2="1">
      <stop offset="0%" stop-color="#0EA5E9" stop-opacity="0.24"/>
      <stop offset="100%" stop-color="#34D399" stop-opacity="0.24"/>
    </linearGradient>
    <linearGradient id="flow" x1="0" y1="0" x2="1" y2="0">
      <stop offset="0%" stop-color="#60A5FA" stop-opacity="0.8"/>
      <stop offset="100%" stop-color="#34D399" stop-opacity="0.8"/>
    </linearGradient>
  </defs>
  <rect width="1400" height="800" rx="64" fill="#0B1729"/>
  <rect x="80" y="88" width="1240" height="624" rx="44" fill="#0F2239"/>
  <rect x="140" y="148" width="300" height="504" rx="32" fill="url(#panel)" stroke="#38BDF8" stroke-opacity="0.35" stroke-width="3"/>
  <rect x="140" y="148" width="300" height="96" rx="32" fill="#0F1D31"/>
  <rect x="180" y="180" width="220" height="28" rx="14" fill="#38BDF8" fill-opacity="0.55"/>
  <rect x="180" y="220" width="160" height="16" rx="8" fill="#E2E8F0" fill-opacity="0.45"/>
  <rect x="180" y="260" width="220" height="184" rx="24" fill="#0F1D31" fill-opacity="0.55"/>
  <rect x="180" y="468" width="220" height="156" rx="24" fill="#0F1D31" fill-opacity="0.55"/>
  <rect x="556" y="148" width="324" height="220" rx="32" fill="url(#panel)" stroke="#34D399" stroke-opacity="0.35" stroke-width="3"/>
  <rect x="556" y="408" width="324" height="244" rx="32" fill="url(#panel)" stroke="#FACC15" stroke-opacity="0.25" stroke-width="3"/>
  <rect x="556" y="148" width="324" height="72" rx="32" fill="#0F1D31"/>
  <rect x="596" y="172" width="244" height="28" rx="14" fill="#34D399" fill-opacity="0.55"/>
  <rect x="596" y="216" width="184" height="16" rx="8" fill="#E2E8F0" fill-opacity="0.45"/>
  <rect x="596" y="444" width="244" height="28" rx="14" fill="#FACC15" fill-opacity="0.55"/>
  <rect x="596" y="488" width="204" height="16" rx="8" fill="#E2E8F0" fill-opacity="0.45"/>
  <rect x="924" y="232" width="316" height="180" rx="32" fill="url(#panel)" stroke="#A855F7" stroke-opacity="0.35" stroke-width="3"/>
  <rect x="924" y="232" width="316" height="72" rx="32" fill="#0F1D31"/>
  <rect x="964" y="256" width="236" height="28" rx="14" fill="#818CF8" fill-opacity="0.55"/>
  <rect x="964" y="300" width="176" height="16" rx="8" fill="#E2E8F0" fill-opacity="0.45"/>
  <rect x="964" y="344" width="236" height="40" rx="20" fill="#0F1D31" fill-opacity="0.55"/>
  <rect x="924" y="456" width="316" height="196" rx="32" fill="url(#panel)" stroke="#F472B6" stroke-opacity="0.35" stroke-width="3"/>
  <rect x="924" y="456" width="316" height="72" rx="32" fill="#0F1D31"/>
  <rect x="964" y="480" width="236" height="28" rx="14" fill="#F472B6" fill-opacity="0.55"/>
  <rect x="964" y="524" width="176" height="16" rx="8" fill="#E2E8F0" fill-opacity="0.45"/>
  <rect x="964" y="568" width="236" height="40" rx="20" fill="#0F1D31" fill-opacity="0.55"/>
  <path d="M460 300H556" stroke="url(#flow)" stroke-width="18" stroke-linecap="round"/>
  <path d="M880 260H924" stroke="url(#flow)" stroke-width="18" stroke-linecap="round"/>
  <path d="M880 520H924" stroke="url(#flow)" stroke-width="18" stroke-linecap="round"/>
  <path d="M720 368V408" stroke="url(#flow)" stroke-width="18" stroke-linecap="round"/>
  <rect x="420" y="280" width="48" height="48" rx="16" fill="#34D399" fill-opacity="0.65"/>
  <rect x="840" y="240" width="48" height="48" rx="16" fill="#38BDF8" fill-opacity="0.65"/>
  <rect x="840" y="500" width="48" height="48" rx="16" fill="#F472B6" fill-opacity="0.65"/>
  <rect x="700" y="360" width="40" height="40" rx="16" fill="#60A5FA" fill-opacity="0.65"/>
  <rect x="420" y="520" width="48" height="48" rx="16" fill="#FACC15" fill-opacity="0.65"/>
  <path d="M460 540H556" stroke="url(#flow)" stroke-width="18" stroke-linecap="round"/>
  <rect x="180" y="292" width="220" height="48" rx="18" fill="#0B1729" fill-opacity="0.45"/>
  <rect x="180" y="352" width="220" height="48" rx="18" fill="#0B1729" fill-opacity="0.45"/>
  <rect x="180" y="412" width="220" height="48" rx="18" fill="#0B1729" fill-opacity="0.45"/>
  <rect x="180" y="512" width="220" height="48" rx="18" fill="#0B1729" fill-opacity="0.45"/>
  <rect x="596" y="248" width="244" height="80" rx="24" fill="#0F1D31" fill-opacity="0.55"/>
  <rect x="596" y="552" width="244" height="80" rx="24" fill="#0F1D31" fill-opacity="0.55"/>
  <rect x="964" y="360" width="236" height="40" rx="20" fill="#0F1D31" fill-opacity="0.35"/>
  <rect x="964" y="584" width="236" height="40" rx="20" fill="#0F1D31" fill-opacity="0.35"/>
</svg>
